<?xml version="1.0" standalone="no"?>
<!DOCTYPE svg PUBLIC "-//W3C//DTD SVG 20010904//EN"
 "http://www.w3.org/TR/2001/REC-SVG-20010904/DTD/svg10.dtd">
<svg version="1.0" xmlns="http://www.w3.org/2000/svg"
 width="2284.000000pt" height="2284.000000pt" viewBox="0 0 2284.000000 2284.000000"
 preserveAspectRatio="xMidYMid meet">
<metadata>
Created by potrace 1.14, written by Peter Selinger 2001-2017
</metadata>
<g transform="translate(0.000000,2284.000000) scale(0.100000,-0.100000)"
fill="#000000" stroke="none">
<path d="M11109 18430 c-9 -5 -61 -14 -115 -20 -125 -13 -327 -41 -336 -46 -3
-2 -57 -13 -120 -24 -62 -11 -135 -26 -163 -34 -27 -8 -70 -17 -95 -21 -25 -4
-72 -15 -105 -25 -33 -10 -80 -21 -105 -25 -25 -4 -64 -16 -87 -26 -23 -11
-59 -23 -80 -26 -21 -3 -54 -14 -73 -23 -19 -9 -48 -20 -65 -24 -16 -4 -48
-16 -70 -26 -22 -10 -107 -46 -190 -81 -259 -108 -538 -258 -780 -418 -101
-67 -246 -171 -291 -208 -27 -23 -68 -54 -91 -70 -74 -50 -184 -152 -414 -384
-124 -126 -252 -264 -285 -309 -32 -44 -88 -118 -124 -164 -36 -46 -75 -99
-88 -118 -13 -18 -43 -60 -67 -93 -25 -33 -45 -63 -45 -67 0 -4 -18 -34 -40
-67 -22 -33 -40 -62 -40 -64 0 -3 -18 -35 -40 -71 -22 -36 -40 -69 -40 -73 0
-3 -6 -14 -14 -22 -15 -17 -136 -252 -173 -337 -12 -27 -33 -75 -47 -106 -14
-31 -26 -63 -26 -70 0 -8 -6 -23 -14 -34 -19 -26 -77 -193 -155 -439 -36 -114
-95 -360 -117 -485 -8 -47 -21 -121 -30 -165 -28 -152 -47 -502 -40 -750 9
-331 25 -581 41 -651 8 -34 20 -106 26 -160 6 -54 17 -116 24 -138 7 -23 16
-61 20 -86 9 -55 64 -263 119 -445 22 -74 92 -268 109 -301 8 -16 17 -41 21
-56 10 -44 149 -334 235 -493 156 -289 312 -518 564 -830 59 -73 325 -351 394
-412 133 -117 382 -319 489 -396 121 -87 327 -222 361 -237 12 -5 39 -20 60
-34 21 -13 67 -41 103 -61 60 -33 95 -50 255 -125 103 -48 252 -109 327 -136
40 -13 81 -29 90 -34 10 -6 23 -10 30 -10 7 0 26 -7 42 -15 16 -8 47 -18 70
-22 22 -3 64 -17 91 -30 28 -12 60 -23 72 -23 13 0 62 -11 109 -25 47 -14 99
-25 114 -25 15 0 47 -9 71 -19 24 -10 80 -22 124 -25 91 -8 185 -24 200 -36
20 -15 74 -22 235 -30 91 -5 201 -14 245 -21 110 -16 378 -17 505 -1 58 6 166
17 240 22 164 13 222 22 320 49 41 11 96 21 122 21 27 0 74 9 105 19 32 11 79
22 104 25 26 3 66 13 90 21 24 9 71 20 104 25 33 4 87 18 120 30 33 12 105 38
160 57 55 20 114 41 130 48 17 7 56 25 89 39 32 14 63 26 68 26 9 0 147 62
183 82 25 14 40 22 200 99 72 34 137 68 145 75 8 7 38 24 65 39 28 15 87 52
132 82 46 29 91 57 100 60 27 10 317 228 376 283 29 26 77 67 107 91 45 36
306 284 344 327 6 7 42 45 81 85 74 76 185 211 185 225 0 5 10 18 23 30 12 11
31 33 42 48 11 14 27 34 35 43 23 25 179 256 240 355 19 31 54 87 77 124 24
37 86 155 139 262 53 107 102 207 110 222 8 14 14 33 14 42 0 8 9 30 20 48 11
18 20 40 20 48 0 8 12 38 25 65 14 28 25 57 25 65 0 9 6 24 13 35 7 11 26 61
41 110 16 50 35 110 43 135 40 123 96 362 119 505 13 88 29 189 35 225 55 346
48 1076 -15 1475 -8 50 -20 128 -27 175 -29 211 -173 713 -240 842 -10 20 -19
44 -19 53 0 9 -9 33 -19 53 -11 20 -43 89 -72 152 -96 212 -130 279 -249 485
-23 41 -133 212 -148 230 -4 6 -23 33 -42 60 -19 28 -60 82 -90 120 -31 39
-69 88 -85 109 -79 104 -111 144 -149 186 -71 79 -338 345 -431 430 -79 72
-325 268 -390 310 -13 8 -81 54 -151 101 -71 48 -163 106 -204 129 -151 86
-358 196 -440 234 -47 21 -110 49 -140 63 -126 58 -532 203 -568 203 -11 0
-39 7 -62 15 -53 19 -279 69 -380 85 -41 6 -88 16 -104 21 -17 5 -93 16 -170
24 -194 20 -295 36 -302 46 -7 12 -655 11 -675 -1z m526 -1452 c17 -9 59 -31
95 -48 177 -87 320 -258 382 -458 30 -99 23 -241 -18 -338 -89 -206 -253 -360
-474 -443 -90 -34 -217 -35 -313 -3 -212 71 -408 269 -483 487 -67 196 -10
399 167 596 67 74 176 157 229 174 13 4 46 18 74 32 47 22 60 24 181 21 97 -3
138 -8 160 -20z m-1287 -1655 c22 -16 50 -24 107 -28 54 -4 89 -13 121 -31 27
-15 53 -23 64 -19 22 7 238 -97 309 -149 119 -88 214 -220 261 -362 25 -76 34
-128 45 -262 26 -297 14 -461 -38 -537 -102 -148 -231 -216 -385 -201 -81 7
-132 36 -183 104 -47 61 -59 96 -59 167 0 28 -12 86 -27 133 -48 147 -138 233
-298 288 -76 27 -89 28 -270 28 -237 1 -326 -18 -445 -92 -155 -96 -261 -268
-321 -517 -22 -94 -24 -119 -24 -390 0 -249 3 -298 18 -347 9 -32 22 -81 27
-110 18 -90 83 -235 151 -334 45 -65 148 -161 209 -193 132 -70 54 -66 1275
-66 l1100 0 79 23 c43 12 94 31 115 42 59 31 148 107 186 158 45 61 135 235
135 261 0 11 9 44 21 73 24 59 25 115 33 1113 4 467 5 494 26 575 29 112 76
210 142 296 85 113 155 167 308 244 100 49 110 52 215 60 61 5 405 9 765 9
723 1 715 1 819 -62 68 -42 161 -149 203 -234 28 -57 30 -70 25 -126 -10 -111
-41 -157 -132 -199 -49 -23 -56 -23 -523 -28 -454 -5 -474 -6 -488 -24 -12
-17 -14 -121 -14 -640 -1 -616 -8 -845 -29 -885 -6 -11 -16 -69 -22 -128 -7
-61 -19 -123 -29 -143 -10 -19 -21 -57 -25 -85 -4 -29 -17 -61 -31 -78 -13
-16 -24 -37 -24 -46 0 -30 -115 -254 -171 -332 -150 -211 -227 -285 -319 -307
-25 -6 -63 -15 -85 -21 -30 -7 -54 -7 -95 4 -30 7 -75 16 -100 20 -25 4 -72
16 -104 27 -50 17 -75 20 -150 15 -50 -3 -129 -15 -176 -26 -47 -12 -98 -21
-115 -21 -16 0 -48 -9 -70 -19 -22 -11 -78 -37 -125 -59 -52 -24 -125 -71
-188 -120 -56 -45 -127 -95 -157 -112 l-54 -31 -428 3 c-499 3 -456 -5 -609
125 -142 121 -312 213 -395 213 -19 0 -80 12 -134 26 -109 28 -187 28 -292 -2
-28 -8 -79 -16 -113 -18 -45 -2 -66 -9 -84 -25 -13 -12 -41 -25 -62 -28 -38
-6 -139 -61 -232 -127 -62 -44 -104 -65 -162 -80 -90 -23 -278 32 -490 142
-273 143 -493 340 -662 592 -94 139 -228 422 -228 481 0 9 -9 36 -19 60 -11
24 -22 76 -26 114 -3 39 -16 116 -27 173 -34 173 -18 448 41 692 84 343 255
654 491 891 52 52 115 109 140 125 25 17 65 45 90 62 58 39 161 97 220 123
154 69 253 109 270 109 9 0 43 11 76 24 32 13 85 26 118 30 32 3 68 12 80 18
45 24 93 27 503 25 417 -2 422 -2 451 -24z m-49 -3654 c97 -27 239 -99 293
-147 57 -51 132 -168 159 -249 33 -99 32 -240 -4 -341 -49 -136 -152 -279
-260 -359 -79 -58 -189 -110 -297 -139 -134 -37 -190 -39 -310 -14 -275 58
-444 208 -500 444 -32 134 -18 236 56 391 54 113 119 190 228 270 109 79 204
120 331 144 137 25 213 25 304 0z m2593 0 c150 -33 264 -103 352 -217 158
-207 164 -437 18 -679 -92 -153 -287 -294 -474 -343 -98 -27 -271 -32 -358
-11 -126 30 -268 115 -341 203 -108 130 -164 334 -129 468 64 244 214 424 437
524 165 74 329 93 495 55z"/>
<path d="M4715 15233 c-299 -35 -606 -204 -870 -477 -109 -113 -155 -164 -155
-171 0 -4 -16 -26 -36 -49 -20 -23 -90 -108 -156 -191 -267 -332 -434 -505
-488 -505 -30 0 -36 28 -11 58 46 59 74 134 82 221 9 100 -2 210 -25 243 -9
12 -16 30 -16 38 0 33 -91 139 -148 174 -83 49 -125 60 -237 61 -156 0 -235
-42 -288 -154 -53 -113 -36 -221 47 -293 28 -25 38 -28 110 -28 l78 0 39 43
c22 23 42 52 45 63 11 42 -16 106 -67 158 -43 43 -48 52 -34 62 37 28 192 -26
275 -96 59 -49 91 -103 115 -193 18 -72 17 -102 -8 -240 l-15 -78 -93 -93
c-52 -51 -107 -100 -124 -108 -148 -79 -209 -108 -242 -114 -21 -4 -42 -10
-48 -14 -5 -4 -39 -11 -75 -16 l-65 -8 75 -8 c88 -10 437 0 461 12 9 5 52 16
95 25 118 24 348 117 444 179 19 13 69 45 110 71 176 113 337 253 500 436 36
40 70 77 75 83 6 6 17 20 25 32 27 38 173 195 290 312 188 186 334 271 516
298 174 26 303 -3 443 -99 76 -53 133 -121 186 -223 65 -127 77 -175 76 -312
0 -103 -4 -128 -30 -207 -77 -228 -211 -393 -421 -517 -94 -55 -94 -55 -220
-84 -101 -23 -172 -25 -185 -4 -3 5 -24 11 -47 15 -55 10 -103 37 -162 93 -61
59 -86 99 -119 190 -30 82 -35 140 -12 148 8 3 47 -10 87 -30 78 -38 128 -45
189 -25 45 16 64 33 94 88 62 111 49 202 -47 312 -14 16 -50 36 -90 49 -171
57 -329 -9 -415 -174 -22 -41 -45 -129 -50 -193 -10 -106 56 -265 153 -366 66
-71 248 -161 349 -173 156 -18 392 -2 460 33 22 11 52 23 67 27 50 12 201 111
268 176 101 98 182 233 230 383 27 82 31 110 36 257 6 163 6 166 -24 260 -16
52 -41 115 -55 140 -14 25 -35 64 -47 87 -25 49 -120 158 -194 221 -154 133
-353 203 -566 200 -58 0 -118 -3 -135 -5z"/>
<path d="M17900 15235 c-8 -2 -49 -9 -90 -15 -109 -17 -300 -103 -361 -162 -8
-8 -27 -23 -42 -35 -16 -12 -59 -56 -96 -98 -71 -79 -127 -179 -178 -316 -28
-73 -28 -77 -25 -268 2 -165 6 -200 22 -236 10 -23 25 -59 33 -81 14 -41 132
-204 148 -204 5 0 44 -37 86 -81 142 -148 179 -184 204 -196 128 -61 166 -74
257 -85 121 -15 193 -15 301 0 73 10 90 16 137 52 89 67 64 86 -59 47 -210
-67 -198 -65 -334 -36 -148 32 -365 137 -427 206 -16 18 -36 33 -43 33 -7 0
-13 9 -13 19 0 11 -8 27 -17 36 -24 25 -68 109 -116 220 -46 109 -60 192 -55
322 4 103 9 129 37 201 49 125 78 170 162 254 91 93 181 140 302 159 67 11 94
11 191 -4 62 -9 126 -23 142 -31 16 -8 69 -33 118 -57 138 -66 285 -206 589
-560 116 -136 270 -290 344 -345 20 -16 72 -56 114 -89 213 -166 459 -284 704
-337 67 -14 143 -20 295 -23 113 -3 198 -2 190 1 -8 3 -43 19 -76 35 -34 16
-67 29 -74 29 -7 0 -40 14 -74 32 -147 77 -310 227 -321 297 -3 20 -13 68 -22
106 -18 74 -19 131 -4 149 5 6 15 34 22 61 16 66 84 152 153 193 32 20 89 42
141 54 78 18 89 19 102 5 14 -14 10 -21 -39 -71 -50 -49 -68 -85 -68 -130 0
-21 87 -106 109 -106 21 0 27 10 14 24 -5 4 -8 13 -8 19 0 7 -6 12 -14 12 -21
0 -26 24 -7 31 10 4 14 13 11 24 -6 20 31 40 77 40 50 0 107 38 114 77 9 47
-18 111 -64 155 -55 53 -117 72 -231 72 -90 0 -101 -2 -173 -37 -75 -37 -138
-93 -165 -148 -54 -112 -65 -148 -70 -229 -7 -113 7 -179 61 -291 54 -110 49
-128 -20 -78 -77 55 -172 152 -346 354 -53 61 -206 250 -282 348 -77 99 -260
285 -356 362 -277 223 -544 328 -820 324 -41 -1 -82 -3 -90 -4z"/>
<path d="M18203 14360 c-139 -56 -210 -213 -152 -340 30 -67 64 -97 124 -111
59 -13 144 1 166 28 24 28 70 46 93 35 32 -15 58 -23 91 -29 17 -2 39 -14 49
-26 13 -15 20 -18 23 -9 3 6 11 12 19 12 23 0 36 50 31 113 -13 143 -89 266
-196 314 -78 35 -178 40 -248 13z"/>
<path d="M20387 14240 c-22 -26 -21 -30 3 -30 15 0 20 7 20 25 0 30 -1 30 -23
5z"/>
<path d="M1349 13089 c-48 -5 -106 -13 -130 -19 -24 -6 -64 -15 -89 -21 -63
-12 -256 -87 -313 -121 -26 -15 -51 -28 -54 -28 -12 0 -109 -65 -188 -126 -74
-57 -136 -118 -225 -220 -94 -108 -232 -349 -258 -449 -11 -42 -26 -92 -67
-215 -23 -71 -25 -90 -25 -276 0 -110 4 -204 9 -210 8 -9 27 -68 56 -176 8
-32 22 -84 31 -115 22 -83 106 -252 182 -368 89 -136 207 -252 377 -371 103
-72 390 -204 444 -204 26 0 124 -26 150 -39 12 -7 103 -11 244 -11 213 0 227
1 295 25 39 14 80 25 91 25 40 0 232 85 326 145 109 69 243 217 311 341 67
123 88 219 81 374 -6 150 -33 243 -105 364 -46 78 -131 164 -202 206 -70 40
-206 80 -276 80 -106 0 -240 -50 -325 -122 -100 -84 -139 -173 -139 -317 0
-143 26 -209 115 -293 115 -109 333 -98 451 23 46 47 80 52 90 13 14 -56 -4
-196 -35 -270 -54 -133 -69 -154 -189 -271 -83 -81 -157 -125 -267 -159 -260
-80 -579 7 -895 244 -83 62 -237 215 -279 276 -110 161 -211 356 -211 408 0
12 -9 38 -20 56 -16 25 -21 55 -24 130 -2 53 -10 119 -17 146 -9 38 -9 63 -1
110 7 34 14 103 17 154 3 61 10 101 20 115 9 12 20 40 26 62 11 43 98 205 110
205 3 0 12 14 19 30 7 17 16 30 21 30 4 0 10 8 13 18 10 30 167 179 246 232
84 56 180 96 315 131 123 32 239 30 354 -5 47 -14 95 -26 107 -26 24 0 143
-44 234 -87 77 -36 192 -107 280 -174 117 -88 386 -359 555 -559 44 -52 107
-124 140 -160 33 -36 103 -112 155 -170 295 -327 551 -554 846 -752 106 -71
395 -228 419 -228 3 0 41 -16 83 -36 153 -72 460 -156 637 -174 329 -33 341
-34 451 -21 60 7 150 17 199 22 50 5 96 11 103 14 29 11 7 24 -50 30 -80 8
-225 40 -303 67 -65 22 -236 104 -282 136 -15 10 -48 32 -72 48 -100 66 -240
233 -300 358 -62 130 -75 184 -72 314 2 139 17 200 75 306 62 113 170 210 290
260 43 18 193 46 248 46 102 0 90 -48 -28 -108 -33 -17 -48 -35 -77 -90 -44
-84 -48 -140 -15 -204 46 -88 89 -121 192 -145 52 -12 67 -12 128 3 123 30
186 86 234 205 40 100 41 158 5 259 -17 47 -48 109 -68 139 -39 57 -125 127
-203 166 -104 52 -407 51 -511 -2 -26 -13 -50 -23 -53 -23 -27 0 -226 -161
-226 -182 0 -4 -15 -29 -34 -55 -43 -61 -81 -138 -91 -183 -4 -19 -15 -46 -24
-59 -13 -21 -16 -57 -16 -221 1 -194 1 -195 32 -275 50 -129 61 -151 113 -227
48 -70 60 -98 41 -98 -14 0 -104 63 -167 116 -66 57 -309 302 -351 354 -15 20
-44 54 -65 75 -32 35 -193 234 -366 452 -31 40 -66 83 -77 96 -11 14 -31 38
-45 56 -80 101 -229 271 -325 370 -479 494 -956 761 -1475 826 -125 16 -198
17 -331 4z"/>
<path d="M21105 13080 c-343 -50 -737 -226 -1055 -473 -171 -133 -402 -355
-527 -507 -34 -41 -112 -135 -173 -209 -61 -73 -168 -206 -237 -295 -70 -88
-158 -197 -195 -241 -207 -240 -361 -408 -429 -469 -89 -79 -187 -148 -200
-140 -10 6 34 98 51 109 19 12 87 159 94 204 4 25 14 60 22 78 23 47 15 360
-9 415 -9 21 -17 48 -17 62 0 57 -114 242 -193 311 -114 101 -223 153 -352
168 -117 13 -154 13 -249 -1 -66 -10 -92 -20 -170 -67 -130 -77 -168 -124
-220 -276 -32 -91 -32 -126 -5 -215 27 -89 40 -113 86 -162 48 -50 113 -73
213 -75 110 -3 156 18 230 104 54 63 60 74 60 115 0 93 -93 221 -178 244 -87
23 -75 70 20 78 67 5 199 -20 269 -51 62 -27 146 -91 202 -151 42 -45 97 -122
97 -136 0 -4 12 -32 28 -62 26 -51 27 -58 27 -208 -1 -138 -3 -160 -23 -202
-12 -26 -22 -53 -22 -60 0 -7 -12 -36 -26 -63 -106 -201 -256 -343 -484 -455
-69 -34 -132 -65 -142 -70 -22 -12 -260 -67 -323 -75 -59 -7 -89 -21 -65 -29
15 -5 264 -33 355 -40 169 -12 673 66 825 128 19 8 59 22 88 31 29 8 76 26
105 39 29 13 79 35 112 49 210 89 406 205 563 335 18 15 45 34 60 42 15 9 45
33 68 55 22 22 98 94 168 160 199 188 304 295 398 407 48 56 103 121 124 143
20 22 59 67 87 100 74 89 318 335 537 539 66 61 334 246 357 246 5 0 47 16 93
36 47 20 121 45 165 55 44 11 112 27 150 36 104 26 223 22 308 -11 37 -14 80
-26 95 -26 15 -1 50 -11 77 -23 54 -24 248 -138 253 -148 2 -4 36 -41 77 -82
167 -171 260 -362 291 -597 15 -117 16 -147 5 -235 -7 -55 -16 -130 -20 -167
-5 -37 -15 -77 -23 -90 -8 -13 -18 -40 -22 -60 -24 -128 -202 -409 -350 -551
-152 -147 -392 -298 -545 -342 -123 -37 -257 -57 -336 -52 -134 8 -262 55
-355 130 -146 116 -242 248 -279 382 -12 42 -15 203 -5 229 10 25 50 19 74
-11 45 -58 167 -113 250 -113 72 0 179 50 229 107 84 95 86 100 86 267 0 170
-2 175 -94 284 -81 97 -247 160 -393 149 -205 -16 -376 -134 -470 -327 -67
-138 -73 -166 -73 -355 1 -167 1 -171 34 -260 57 -155 172 -295 337 -411 51
-35 95 -64 99 -64 3 0 43 -18 88 -39 45 -22 109 -45 142 -51 33 -6 88 -20 121
-31 55 -18 84 -19 280 -16 171 3 232 7 279 21 33 10 85 23 115 30 137 32 356
141 495 246 199 151 332 311 435 528 22 45 40 90 40 100 0 10 7 27 15 39 8 12
21 52 29 90 8 38 20 81 25 96 6 16 11 53 11 82 0 60 16 105 37 105 10 0 13 31
13 146 0 128 -2 149 -19 170 -10 13 -24 54 -31 91 -17 95 -48 222 -64 263 -54
135 -72 178 -87 200 -9 14 -35 56 -59 93 -58 92 -87 128 -178 220 -142 145
-383 300 -564 363 -173 61 -259 75 -473 79 -110 2 -227 0 -260 -5z"/>
<path d="M6600 7153 c-23 -9 -28 -22 -21 -55 6 -30 10 -32 86 -47 137 -28 210
-95 240 -223 13 -58 15 -197 15 -1036 l0 -970 23 -6 c31 -8 100 -7 114 2 9 5
12 215 15 849 2 652 6 845 15 854 17 17 35 0 186 -176 67 -77 160 -185 208
-240 47 -55 131 -152 185 -215 98 -115 137 -159 184 -211 14 -15 43 -47 65
-72 22 -24 56 -64 76 -88 20 -24 65 -77 100 -118 35 -41 77 -90 94 -110 36
-44 217 -252 328 -378 87 -100 102 -107 187 -101 l45 3 0 1170 0 1170 -71 3
c-67 3 -72 1 -78 -20 -3 -13 -6 -379 -6 -814 0 -686 -2 -793 -15 -797 -14 -6
-74 58 -220 233 -33 40 -77 91 -98 114 -21 22 -52 58 -70 80 -75 90 -198 235
-496 586 -101 118 -218 255 -260 305 -183 216 -228 247 -418 290 -89 21 -133
25 -253 24 -80 0 -152 -3 -160 -6z"/>
<path d="M9830 6509 c-101 -12 -210 -40 -261 -65 -60 -30 -115 -92 -129 -146
-6 -24 -18 -65 -26 -92 -15 -54 -18 -143 -5 -164 5 -9 31 -12 92 -10 l83 3 8
45 c18 103 102 219 188 258 75 34 196 41 271 17 56 -19 144 -96 173 -152 22
-45 56 -176 56 -221 0 -23 5 -75 11 -117 16 -103 13 -105 -111 -105 -130 0
-427 -35 -515 -61 -159 -47 -257 -104 -304 -178 -100 -156 -109 -374 -20 -518
67 -108 185 -177 366 -213 216 -43 382 -11 531 102 35 27 71 48 81 48 10 0 38
-22 62 -48 73 -81 81 -84 218 -80 66 1 123 7 128 11 4 5 8 248 8 540 0 480 -2
541 -19 622 -45 219 -129 346 -286 437 -137 79 -383 114 -600 87z m460 -914
c19 -22 9 -428 -12 -475 -26 -59 -104 -136 -170 -169 -51 -26 -73 -31 -133
-31 -64 0 -77 3 -113 30 -59 42 -90 95 -113 191 l-21 84 23 97 c19 83 29 105
67 151 35 44 59 62 115 87 86 38 132 47 253 49 69 1 95 -3 104 -14z"/>
<path d="M11750 6509 c-167 -27 -311 -86 -396 -163 -31 -27 -63 -70 -83 -110
-29 -56 -34 -78 -39 -159 -10 -189 51 -294 243 -424 68 -46 201 -114 258 -133
119 -38 354 -167 404 -221 29 -32 53 -91 53 -131 0 -95 -50 -164 -154 -214
-68 -33 -75 -34 -191 -34 -179 0 -264 29 -357 123 -54 54 -108 152 -128 234
-9 34 -15 43 -40 48 -16 4 -39 3 -51 0 -21 -7 -21 -11 -17 -144 3 -120 7 -142
29 -191 45 -97 140 -154 319 -192 148 -31 401 -31 546 0 195 41 352 140 424
265 29 50 30 56 30 178 0 114 -2 132 -25 182 -34 73 -91 136 -173 190 -90 59
-153 90 -369 182 -259 109 -341 167 -372 263 -12 35 -12 54 -2 112 11 61 18
76 55 113 97 101 319 117 478 36 49 -25 140 -109 168 -154 11 -18 31 -68 46
-111 14 -43 30 -84 35 -90 13 -16 51 -22 77 -13 20 8 22 15 22 96 0 48 -7 127
-16 174 -14 77 -20 91 -60 137 -34 39 -61 57 -117 81 -163 68 -422 98 -597 70z"/>
<path d="M13895 6513 c-96 -15 -218 -67 -305 -129 -55 -39 -62 -38 -114 16
-58 60 -117 73 -344 78 -111 2 -214 1 -227 -2 -20 -5 -25 -13 -25 -40 0 -43
12 -52 84 -65 88 -16 136 -49 169 -114 l27 -54 0 -679 c0 -410 4 -685 10 -694
7 -12 41 -16 172 -18 89 -2 186 -1 216 3 l55 7 -5 667 c-7 739 -11 682 58 729
67 46 143 67 244 67 109 0 147 -15 220 -85 23 -22 45 -40 49 -40 9 0 73 43
121 81 29 24 32 30 26 62 -8 42 -53 106 -98 140 -72 53 -230 87 -333 70z"/>
<path d="M15160 6509 c-41 -5 -88 -13 -104 -19 -16 -5 -38 -10 -50 -10 -33 0
-138 -54 -167 -86 -54 -61 -70 -102 -82 -219 -6 -61 -8 -119 -4 -128 5 -14 20
-17 74 -17 37 0 73 4 80 8 6 4 21 36 33 72 38 114 91 181 180 227 50 25 64 28
160 28 96 0 109 -2 152 -27 68 -40 131 -120 157 -198 28 -87 56 -331 41 -359
-10 -19 -20 -21 -120 -21 -60 0 -158 -6 -217 -14 -59 -8 -135 -17 -168 -21
-81 -8 -217 -50 -288 -88 -161 -85 -238 -260 -208 -476 15 -107 45 -164 123
-236 68 -63 145 -102 253 -127 240 -55 433 -20 587 105 32 26 61 47 65 47 5 0
38 -31 74 -70 l66 -70 117 0 c65 0 126 5 137 10 18 10 19 27 19 563 -1 304 -5
570 -10 592 -81 370 -283 528 -690 540 -74 2 -169 0 -210 -6z m470 -918 c13
-25 13 -394 0 -439 -16 -57 -113 -165 -179 -201 -51 -27 -69 -31 -133 -31 -65
0 -80 4 -121 29 -46 30 -84 85 -99 146 -27 106 -29 136 -13 218 27 132 73 194
180 243 86 40 147 52 257 53 86 1 98 -1 108 -18z"/>
</g>
</svg>
